HIERARCHY
ROOT Hips
{
	OFFSET 0.000000 0.000000 0.000000 
	CHANNELS 6 Xposition Yposition Zposition Zrotation Yrotation Xrotation
	JOINT LeftUpLeg
	{
		OFFSET 1.363060 -1.794630 0.839290 
		CHANNELS 3 Zrotation Yrotation Xrotation
		JOINT LeftLeg
		{
			OFFSET 2.448110 -6.726130 0.000000 
			CHANNELS 3 Zrotation Yrotation Xrotation
			JOINT LeftFoot
			{
				OFFSET 2.562200 -7.039590 0.000000 
				CHANNELS 3 Zrotation Yrotation Xrotation
				JOINT LeftToeBase
				{
					OFFSET 0.157640 -0.433110 2.322550 
					CHANNELS 3 Zrotation Yrotation Xrotation
					End Site
					{
						OFFSET 0.000000 0.000000 0.000000 
					}
				}
			}
		}
	}
	JOINT RightUpLeg
	{
		OFFSET -1.305520 -1.794630 0.839290 
		CHANNELS 3 Zrotation Yrotation Xrotation
		JOINT RightLeg
		{
			OFFSET -2.542530 -6.985550 0.000000 
			CHANNELS 3 Zrotation Yrotation Xrotation
			JOINT RightFoot
			{
				OFFSET -2.568260 -7.056230 0.000000 
				CHANNELS 3 Zrotation Yrotation Xrotation
				JOINT RightToeBase
				{
					OFFSET -0.164730 -0.452590 2.363150 
					CHANNELS 3 Zrotation Yrotation Xrotation
					End Site
					{
						OFFSET 0.000000 0.000000 0.000000 
					}
				}
			}
		}
	}
	JOINT Spine
	{
		OFFSET 0.028270 2.035590 -0.193380 
		CHANNELS 3 Zrotation Yrotation Xrotation
		JOINT Spine1
		{
			OFFSET 0.056720 2.048850 -0.042750 
			CHANNELS 3 Zrotation Yrotation Xrotation
			JOINT Neck1
			{
				OFFSET -0.054170 1.746240 0.172020 
				CHANNELS 3 Zrotation Yrotation Xrotation
				JOINT Head
				{
					OFFSET 0.104070 1.761360 -0.123970 
					CHANNELS 3 Zrotation Yrotation Xrotation
					End Site
					{
						OFFSET 0.000000 0.000000 0.000000 
					}
				}
			}
			JOINT LeftArm
			{
				OFFSET 3.362410 1.200890 -0.311210 
				CHANNELS 3 Zrotation Yrotation Xrotation
				JOINT LeftForeArm
				{
					OFFSET 4.983000 -0.000000 -0.000000 
					CHANNELS 3 Zrotation Yrotation Xrotation
					JOINT LeftHand
					{
						OFFSET 3.483560 -0.000000 -0.000000 
						CHANNELS 3 Zrotation Yrotation Xrotation
						JOINT LeftHandIndex1
						{
							OFFSET 0.715260 -0.000000 -0.000000 
							CHANNELS 3 Zrotation Yrotation Xrotation
							End Site
							{
								OFFSET 0.000000 0.000000 0.000000 
							}
						}
					}
				}
			}
			JOINT RightArm
			{
				OFFSET -3.136600 1.374050 -0.404650 
				CHANNELS 3 Zrotation Yrotation Xrotation
				JOINT RightForeArm
				{
					OFFSET -5.241900 -0.000000 -0.000000 
					CHANNELS 3 Zrotation Yrotation Xrotation
					JOINT RightHand
					{
						OFFSET -3.444170 -0.000000 -0.000000 
						CHANNELS 3 Zrotation Yrotation Xrotation
						JOINT RightHandIndex1
						{
							OFFSET -0.622530 -0.000000 -0.000000 
							CHANNELS 3 Zrotation Yrotation Xrotation
							End Site
							{
								OFFSET 0.000000 0.000000 0.000000 
							}
						}
					}
				}
			}
		}
	}
}
MOTION
Frames: 7
Frame Time: 0.041667
4.704204 17.775194 -5.661791 3.009964 -10.720779 10.406320 -13.364283 -4.920393 -18.969532 1.026952 9.710522 30.209863 0.736757 0.424978 -3.950607 0.419500 -4.157200 -11.519400 0.598569 9.323863 -29.639311 -3.185199 -12.782788 36.997324 -0.879609 0.602056 2.011960 -0.019100 -0.892300 2.452400 0.701007 -2.620431 -1.520411 5.526767 -1.266410 0.748873 5.202434 -7.159554 11.516834 3.142600 -3.830600 10.635700 -76.919361 -45.701970 34.238933 127.498197 -54.950681 -94.371240 0.607951 -0.959566 2.265458 -7.125000 0.000000 0.000000 57.713278 40.820680 11.207322 -134.973341 45.888091 -102.476466 1.301701 -0.323409 3.216464 7.125000 0.000000 0.000000 
4.702560 17.776118 -5.661072 3.038987 -10.737956 10.411011 -13.423088 -4.888309 -18.919172 1.039007 9.721797 30.260751 0.682828 0.573523 -3.903444 0.490400 -4.490000 -12.459500 0.625063 9.196640 -29.708503 -3.196592 -12.800727 37.043170 -0.862997 0.545772 2.080812 -0.004100 -0.414300 1.138500 0.680557 -2.590784 -1.527618 5.471264 -1.247402 0.709224 5.191222 -7.154355 11.465109 3.122500 -3.822500 10.581800 -76.943281 -45.626861 34.357347 127.454436 -54.970745 -94.338501 0.609988 -0.962210 2.289588 -7.125000 0.000000 0.000000 57.775222 40.806632 11.232707 -134.967089 45.892128 -102.471600 1.302590 -0.323702 3.295540 7.125000 0.000000 0.000000 
4.701019 17.775810 -5.656551 3.079209 -10.725171 10.420349 -13.461706 -4.935976 -18.842386 1.013506 9.683296 30.150396 0.659984 0.634124 -3.862825 0.520800 -4.624900 -12.841700 0.622811 9.019508 -29.797507 -3.215682 -12.829007 37.120235 -0.872663 0.582248 2.218959 -0.000300 -0.103300 0.283800 0.666615 -2.569862 -1.525200 5.426204 -1.237263 0.720157 5.294066 -7.192108 11.425423 3.180100 -3.836300 10.565900 -77.074427 -45.582564 34.519461 127.366743 -55.015510 -94.270145 0.611385 -0.964626 2.381941 -7.125000 0.000000 0.000000 57.779594 40.793270 11.215436 -134.892808 45.941989 -102.412650 1.308233 -0.330312 3.441110 7.125000 0.000000 0.000000 
4.699787 17.773447 -5.651209 3.110209 -10.726269 10.468337 -13.464797 -5.083574 -18.836637 0.989761 9.651831 30.050685 0.669726 0.625802 -4.017888 0.492300 -4.498900 -12.484600 0.594984 8.875609 -29.923102 -3.235423 -12.858068 37.203159 -0.914670 0.735336 2.384786 -0.000600 -0.161800 0.444500 0.658638 -2.531049 -1.519716 5.391389 -1.219720 0.772116 5.366102 -7.250162 11.402300 3.219400 -3.861000 10.570200 -77.215445 -45.567661 34.723016 127.370761 -55.024147 -94.261654 0.611043 -0.962626 2.419230 -7.125000 0.000000 0.000000 57.730087 40.764270 11.098575 -134.838803 45.981539 -102.372631 1.308819 -0.339437 3.549044 7.125000 0.000000 0.000000 
4.698862 17.772112 -5.647511 3.117502 -10.712179 10.494028 -13.440501 -5.231534 -18.768002 0.962220 9.611310 29.929299 0.682833 0.601226 -4.120214 0.453400 -4.319700 -11.977800 0.598873 8.696511 -30.052907 -3.258996 -12.893547 37.309261 -0.958563 0.901706 2.647190 -0.000600 -0.161900 0.444800 0.647255 -2.511957 -1.525229 5.341494 -1.208058 0.759520 5.364097 -7.272584 11.401057 3.213200 -3.870200 10.567600 -77.286731 -45.510023 34.852637 127.409738 -55.012073 -94.286675 0.611104 -0.963454 2.457110 -7.125000 0.000000 0.000000 57.799350 40.742902 11.110049 -134.842829 45.980038 -102.377925 1.305860 -0.342246 3.624257 7.125000 0.000000 0.000000 
4.696602 17.773242 -5.646278 3.194331 -10.696392 10.495062 -13.506194 -5.265142 -18.715887 0.939745 9.576505 29.833010 0.678580 0.610030 -4.118609 0.454600 -4.325200 -11.993300 0.534227 8.572729 -30.176985 -3.292228 -12.937908 37.438698 -0.980135 0.987867 2.898253 -0.000300 -0.104400 0.286700 0.641111 -2.511886 -1.542989 5.370579 -1.205481 0.700181 5.367288 -7.246239 11.495045 3.219900 -3.861300 10.607600 -77.366621 -45.400670 34.952804 127.503371 -54.976730 -94.353630 0.611304 -0.964239 2.408854 -7.125000 0.000000 0.000000 57.852754 40.711653 11.174594 -134.898853 45.945177 -102.423604 1.297855 -0.338626 3.572166 7.125000 0.000000 0.000000 
4.693931 17.775297 -5.644942 3.221479 -10.727267 10.504671 -13.532769 -5.228137 -18.696794 0.925036 9.552570 29.766125 0.666369 0.640170 -4.071731 0.466100 -4.379200 -12.145900 0.504378 8.506307 -30.318008 -3.331869 -12.990217 37.598390 -0.996980 1.063208 3.099506 -0.000500 -0.143300 0.393600 0.641898 -2.485270 -1.534611 5.388151 -1.194787 0.719241 5.349544 -7.188511 11.611111 3.201600 -3.830800 10.660500 -77.440045 -45.361279 35.048661 127.553824 -54.959943 -94.385659 0.610564 -0.963158 2.364627 -7.125000 0.000000 0.000000 57.815478 40.714308 11.169660 -134.950321 45.912521 -102.463939 1.293168 -0.335073 3.444013 7.125000 0.000000 0.000000 
